<svg xmlns="http://www.w3.org/2000/svg" width="8.5in" height="11.0in" viewBox="0 154.0 8.5 11.0" style="background:#FBFAF6;font-family:Helvetica,Arial,sans-serif;">
<rect x="0.000" y="154.000" width="8.500" height="11.000" fill="#FBFAF6" opacity="1.0" />
<rect x="0.500" y="154.500" width="7.500" height="0.550" fill="#2E2A26" opacity="1.0" rx="0.06" ry="0.06" />
<text x="0.680" y="154.900" font-size="0.26" fill="#FFFFFF" font-weight="bold" text-anchor="start" font-family="Helvetica,Arial,sans-serif">Step 10: Top Panels - Top Leg</text>
<text x="4.250" y="164.700" font-size="0.12" fill="#555" font-weight="normal" text-anchor="middle" font-family="Helvetica,Arial,sans-serif">Page 15 of 19</text>
<line x1="0.000" y1="154.000" x2="8.500" y2="154.000" stroke="#DDD8C8" stroke-width="0.015" stroke-dasharray="0.08,0.08" />
<rect x="0.500" y="155.200" width="7.500" height="4.500" fill="#FFF" opacity="1.0" stroke="#E0DCC8" stroke-width="0.01" rx="0.05" ry="0.05" />
<line x1="1.550" y1="155.200" x2="1.550" y2="159.700" stroke="#EEE7D3" stroke-width="0.005" />
<line x1="1.775" y1="155.200" x2="1.775" y2="159.700" stroke="#EEE7D3" stroke-width="0.005" />
<line x1="2.000" y1="155.200" x2="2.000" y2="159.700" stroke="#EEE7D3" stroke-width="0.005" />
<line x1="2.225" y1="155.200" x2="2.225" y2="159.700" stroke="#EEE7D3" stroke-width="0.005" />
<line x1="2.450" y1="155.200" x2="2.450" y2="159.700" stroke="#EEE7D3" stroke-width="0.005" />
<line x1="2.675" y1="155.200" x2="2.675" y2="159.700" stroke="#EEE7D3" stroke-width="0.005" />
<line x1="2.900" y1="155.200" x2="2.900" y2="159.700" stroke="#EEE7D3" stroke-width="0.005" />
<line x1="3.125" y1="155.200" x2="3.125" y2="159.700" stroke="#EEE7D3" stroke-width="0.005" />
<line x1="3.350" y1="155.200" x2="3.350" y2="159.700" stroke="#EEE7D3" stroke-width="0.005" />
<line x1="3.575" y1="155.200" x2="3.575" y2="159.700" stroke="#EEE7D3" stroke-width="0.005" />
<line x1="3.800" y1="155.200" x2="3.800" y2="159.700" stroke="#EEE7D3" stroke-width="0.005" />
<line x1="4.025" y1="155.200" x2="4.025" y2="159.700" stroke="#EEE7D3" stroke-width="0.005" />
<line x1="4.250" y1="155.200" x2="4.250" y2="159.700" stroke="#EEE7D3" stroke-width="0.005" />
<line x1="4.475" y1="155.200" x2="4.475" y2="159.700" stroke="#EEE7D3" stroke-width="0.005" />
<line x1="4.700" y1="155.200" x2="4.700" y2="159.700" stroke="#EEE7D3" stroke-width="0.005" />
<line x1="4.925" y1="155.200" x2="4.925" y2="159.700" stroke="#EEE7D3" stroke-width="0.005" />
<line x1="5.150" y1="155.200" x2="5.150" y2="159.700" stroke="#EEE7D3" stroke-width="0.005" />
<line x1="5.375" y1="155.200" x2="5.375" y2="159.700" stroke="#EEE7D3" stroke-width="0.005" />
<line x1="5.600" y1="155.200" x2="5.600" y2="159.700" stroke="#EEE7D3" stroke-width="0.005" />
<line x1="5.825" y1="155.200" x2="5.825" y2="159.700" stroke="#EEE7D3" stroke-width="0.005" />
<line x1="6.050" y1="155.200" x2="6.050" y2="159.700" stroke="#EEE7D3" stroke-width="0.005" />
<line x1="6.275" y1="155.200" x2="6.275" y2="159.700" stroke="#EEE7D3" stroke-width="0.005" />
<line x1="6.500" y1="155.200" x2="6.500" y2="159.700" stroke="#EEE7D3" stroke-width="0.005" />
<line x1="6.725" y1="155.200" x2="6.725" y2="159.700" stroke="#EEE7D3" stroke-width="0.005" />
<line x1="6.950" y1="155.200" x2="6.950" y2="159.700" stroke="#EEE7D3" stroke-width="0.005" />
<line x1="1.550" y1="155.200" x2="6.950" y2="155.200" stroke="#EEE7D3" stroke-width="0.005" />
<line x1="1.550" y1="155.425" x2="6.950" y2="155.425" stroke="#EEE7D3" stroke-width="0.005" />
<line x1="1.550" y1="155.650" x2="6.950" y2="155.650" stroke="#EEE7D3" stroke-width="0.005" />
<line x1="1.550" y1="155.875" x2="6.950" y2="155.875" stroke="#EEE7D3" stroke-width="0.005" />
<line x1="1.550" y1="156.100" x2="6.950" y2="156.100" stroke="#EEE7D3" stroke-width="0.005" />
<line x1="1.550" y1="156.325" x2="6.950" y2="156.325" stroke="#EEE7D3" stroke-width="0.005" />
<line x1="1.550" y1="156.550" x2="6.950" y2="156.550" stroke="#EEE7D3" stroke-width="0.005" />
<line x1="1.550" y1="156.775" x2="6.950" y2="156.775" stroke="#EEE7D3" stroke-width="0.005" />
<line x1="1.550" y1="157.000" x2="6.950" y2="157.000" stroke="#EEE7D3" stroke-width="0.005" />
<line x1="1.550" y1="157.225" x2="6.950" y2="157.225" stroke="#EEE7D3" stroke-width="0.005" />
<line x1="1.550" y1="157.450" x2="6.950" y2="157.450" stroke="#EEE7D3" stroke-width="0.005" />
<line x1="1.550" y1="157.675" x2="6.950" y2="157.675" stroke="#EEE7D3" stroke-width="0.005" />
<line x1="1.550" y1="157.900" x2="6.950" y2="157.900" stroke="#EEE7D3" stroke-width="0.005" />
<line x1="1.550" y1="158.125" x2="6.950" y2="158.125" stroke="#EEE7D3" stroke-width="0.005" />
<line x1="1.550" y1="158.350" x2="6.950" y2="158.350" stroke="#EEE7D3" stroke-width="0.005" />
<line x1="1.550" y1="158.575" x2="6.950" y2="158.575" stroke="#EEE7D3" stroke-width="0.005" />
<line x1="1.550" y1="158.800" x2="6.950" y2="158.800" stroke="#EEE7D3" stroke-width="0.005" />
<line x1="1.550" y1="159.025" x2="6.950" y2="159.025" stroke="#EEE7D3" stroke-width="0.005" />
<line x1="1.550" y1="159.250" x2="6.950" y2="159.250" stroke="#EEE7D3" stroke-width="0.005" />
<line x1="1.550" y1="159.475" x2="6.950" y2="159.475" stroke="#EEE7D3" stroke-width="0.005" />
<line x1="1.550" y1="159.700" x2="6.950" y2="159.700" stroke="#EEE7D3" stroke-width="0.005" />
<rect x="1.550" y="155.200" width="5.400" height="1.350" fill="#F8F4E3" opacity="1.0" stroke="#D8D0B0" stroke-width="0.005" />
<rect x="1.550" y="156.550" width="1.350" height="3.150" fill="#F8F4E3" opacity="1.0" stroke="#D8D0B0" stroke-width="0.005" />
<rect x="1.550" y="156.494" width="0.131" height="0.056" fill="#E4DECF" opacity="0.7" stroke="#BBB2A0" stroke-width="0.008" />
<rect x="2.450" y="156.494" width="0.131" height="0.056" fill="#E4DECF" opacity="0.7" stroke="#BBB2A0" stroke-width="0.008" />
<rect x="3.294" y="156.494" width="0.131" height="0.056" fill="#E4DECF" opacity="0.7" stroke="#BBB2A0" stroke-width="0.008" />
<rect x="4.775" y="156.494" width="0.131" height="0.056" fill="#E4DECF" opacity="0.7" stroke="#BBB2A0" stroke-width="0.008" />
<rect x="5.469" y="156.494" width="0.131" height="0.056" fill="#E4DECF" opacity="0.7" stroke="#BBB2A0" stroke-width="0.008" />
<rect x="6.500" y="156.494" width="0.131" height="0.056" fill="#E4DECF" opacity="0.7" stroke="#BBB2A0" stroke-width="0.008" />
<rect x="6.819" y="156.494" width="0.131" height="0.056" fill="#E4DECF" opacity="0.7" stroke="#BBB2A0" stroke-width="0.008" />
<rect x="1.550" y="155.200" width="0.131" height="0.056" fill="#E4DECF" opacity="0.7" stroke="#BBB2A0" stroke-width="0.008" />
<rect x="2.450" y="155.200" width="0.131" height="0.056" fill="#E4DECF" opacity="0.7" stroke="#BBB2A0" stroke-width="0.008" />
<rect x="3.294" y="155.200" width="0.131" height="0.056" fill="#E4DECF" opacity="0.7" stroke="#BBB2A0" stroke-width="0.008" />
<rect x="4.775" y="155.200" width="0.131" height="0.056" fill="#E4DECF" opacity="0.7" stroke="#BBB2A0" stroke-width="0.008" />
<rect x="5.469" y="155.200" width="0.131" height="0.056" fill="#E4DECF" opacity="0.7" stroke="#BBB2A0" stroke-width="0.008" />
<rect x="6.500" y="155.200" width="0.131" height="0.056" fill="#E4DECF" opacity="0.7" stroke="#BBB2A0" stroke-width="0.008" />
<rect x="6.819" y="155.200" width="0.131" height="0.056" fill="#E4DECF" opacity="0.7" stroke="#BBB2A0" stroke-width="0.008" />
<rect x="1.550" y="156.419" width="5.400" height="0.131" fill="#E4DECF" opacity="0.7" stroke="#BBB2A0" stroke-width="0.008" />
<rect x="1.550" y="156.419" width="5.400" height="0.131" fill="#E4DECF" opacity="0.7" stroke="#BBB2A0" stroke-width="0.008" />
<rect x="1.550" y="155.200" width="5.400" height="0.131" fill="#E4DECF" opacity="0.7" stroke="#BBB2A0" stroke-width="0.008" />
<rect x="1.550" y="155.200" width="5.400" height="0.131" fill="#E4DECF" opacity="0.7" stroke="#BBB2A0" stroke-width="0.008" />
<rect x="1.550" y="155.331" width="0.131" height="1.087" fill="#E4DECF" opacity="0.7" stroke="#BBB2A0" stroke-width="0.008" />
<rect x="1.550" y="155.331" width="0.131" height="1.087" fill="#E4DECF" opacity="0.7" stroke="#BBB2A0" stroke-width="0.008" />
<rect x="2.450" y="155.331" width="0.131" height="1.087" fill="#E4DECF" opacity="0.7" stroke="#BBB2A0" stroke-width="0.008" />
<rect x="2.450" y="155.331" width="0.131" height="1.087" fill="#E4DECF" opacity="0.7" stroke="#BBB2A0" stroke-width="0.008" />
<rect x="3.294" y="155.331" width="0.131" height="1.087" fill="#E4DECF" opacity="0.7" stroke="#BBB2A0" stroke-width="0.008" />
<rect x="3.294" y="155.331" width="0.131" height="1.087" fill="#E4DECF" opacity="0.7" stroke="#BBB2A0" stroke-width="0.008" />
<rect x="4.775" y="155.331" width="0.131" height="1.087" fill="#E4DECF" opacity="0.7" stroke="#BBB2A0" stroke-width="0.008" />
<rect x="4.775" y="155.331" width="0.131" height="1.087" fill="#E4DECF" opacity="0.7" stroke="#BBB2A0" stroke-width="0.008" />
<rect x="5.469" y="155.331" width="0.131" height="1.087" fill="#E4DECF" opacity="0.7" stroke="#BBB2A0" stroke-width="0.008" />
<rect x="5.469" y="155.331" width="0.131" height="1.087" fill="#E4DECF" opacity="0.7" stroke="#BBB2A0" stroke-width="0.008" />
<rect x="6.500" y="155.331" width="0.131" height="1.087" fill="#E4DECF" opacity="0.7" stroke="#BBB2A0" stroke-width="0.008" />
<rect x="6.500" y="155.331" width="0.131" height="1.087" fill="#E4DECF" opacity="0.7" stroke="#BBB2A0" stroke-width="0.008" />
<rect x="6.819" y="155.331" width="0.131" height="1.087" fill="#E4DECF" opacity="0.7" stroke="#BBB2A0" stroke-width="0.008" />
<rect x="6.819" y="155.331" width="0.131" height="1.087" fill="#E4DECF" opacity="0.7" stroke="#BBB2A0" stroke-width="0.008" />
<rect x="3.425" y="156.269" width="1.350" height="0.131" fill="#E4DECF" opacity="0.7" stroke="#BBB2A0" stroke-width="0.008" />
<rect x="3.425" y="155.275" width="1.350" height="0.131" fill="#E4DECF" opacity="0.7" stroke="#BBB2A0" stroke-width="0.008" />
<rect x="3.425" y="155.406" width="0.131" height="0.862" fill="#E4DECF" opacity="0.7" stroke="#BBB2A0" stroke-width="0.008" />
<rect x="4.644" y="155.406" width="0.131" height="0.862" fill="#E4DECF" opacity="0.7" stroke="#BBB2A0" stroke-width="0.008" />
<rect x="5.600" y="155.350" width="0.028" height="1.200" fill="#E4DECF" opacity="0.7" stroke="#BBB2A0" stroke-width="0.008" />
<rect x="6.472" y="155.350" width="0.028" height="1.200" fill="#E4DECF" opacity="0.7" stroke="#BBB2A0" stroke-width="0.008" />
<rect x="5.600" y="155.350" width="0.900" height="0.028" fill="#E4DECF" opacity="0.7" stroke="#BBB2A0" stroke-width="0.008" />
<rect x="5.600" y="155.350" width="0.900" height="1.200" fill="#E4DECF" opacity="0.7" stroke="#BBB2A0" stroke-width="0.008" />
<rect x="1.550" y="156.644" width="0.056" height="0.131" fill="#E4DECF" opacity="0.7" stroke="#BBB2A0" stroke-width="0.008" />
<rect x="2.844" y="156.644" width="0.056" height="0.131" fill="#E4DECF" opacity="0.7" stroke="#BBB2A0" stroke-width="0.008" />
<rect x="1.550" y="157.900" width="0.056" height="0.131" fill="#E4DECF" opacity="0.7" stroke="#BBB2A0" stroke-width="0.008" />
<rect x="2.844" y="157.900" width="0.056" height="0.131" fill="#E4DECF" opacity="0.7" stroke="#BBB2A0" stroke-width="0.008" />
<rect x="1.550" y="158.219" width="0.056" height="0.131" fill="#E4DECF" opacity="0.7" stroke="#BBB2A0" stroke-width="0.008" />
<rect x="2.844" y="158.219" width="0.056" height="0.131" fill="#E4DECF" opacity="0.7" stroke="#BBB2A0" stroke-width="0.008" />
<rect x="1.550" y="159.550" width="0.056" height="0.131" fill="#E4DECF" opacity="0.7" stroke="#BBB2A0" stroke-width="0.008" />
<rect x="2.844" y="159.550" width="0.056" height="0.131" fill="#E4DECF" opacity="0.7" stroke="#BBB2A0" stroke-width="0.008" />
<rect x="1.550" y="156.550" width="0.131" height="3.150" fill="#E4DECF" opacity="0.7" stroke="#BBB2A0" stroke-width="0.008" />
<rect x="2.769" y="156.550" width="0.131" height="3.150" fill="#E4DECF" opacity="0.7" stroke="#BBB2A0" stroke-width="0.008" />
<rect x="1.550" y="156.550" width="0.131" height="3.150" fill="#E4DECF" opacity="0.7" stroke="#BBB2A0" stroke-width="0.008" />
<rect x="2.769" y="156.550" width="0.131" height="3.150" fill="#E4DECF" opacity="0.7" stroke="#BBB2A0" stroke-width="0.008" />
<rect x="1.681" y="156.644" width="1.087" height="0.131" fill="#E4DECF" opacity="0.7" stroke="#BBB2A0" stroke-width="0.008" />
<rect x="1.681" y="156.644" width="1.087" height="0.131" fill="#E4DECF" opacity="0.7" stroke="#BBB2A0" stroke-width="0.008" />
<rect x="1.681" y="157.900" width="1.087" height="0.131" fill="#E4DECF" opacity="0.7" stroke="#BBB2A0" stroke-width="0.008" />
<rect x="1.681" y="157.900" width="1.087" height="0.131" fill="#E4DECF" opacity="0.7" stroke="#BBB2A0" stroke-width="0.008" />
<rect x="1.681" y="158.219" width="1.087" height="0.131" fill="#E4DECF" opacity="0.7" stroke="#BBB2A0" stroke-width="0.008" />
<rect x="1.681" y="158.219" width="1.087" height="0.131" fill="#E4DECF" opacity="0.7" stroke="#BBB2A0" stroke-width="0.008" />
<rect x="1.681" y="159.550" width="1.087" height="0.131" fill="#E4DECF" opacity="0.7" stroke="#BBB2A0" stroke-width="0.008" />
<rect x="1.681" y="159.550" width="1.087" height="0.131" fill="#E4DECF" opacity="0.7" stroke="#BBB2A0" stroke-width="0.008" />
<rect x="1.550" y="155.200" width="1.875" height="1.350" fill="#F18F4C" opacity="0.95" stroke="#9A3F0A" stroke-width="0.008" />
<rect x="3.425" y="155.275" width="1.350" height="1.125" fill="#F18F4C" opacity="0.95" stroke="#9A3F0A" stroke-width="0.008" />
<rect x="3.425" y="155.200" width="1.350" height="0.075" fill="#F18F4C" opacity="0.95" stroke="#9A3F0A" stroke-width="0.008" />
<rect x="3.425" y="156.400" width="1.350" height="0.150" fill="#F18F4C" opacity="0.95" stroke="#9A3F0A" stroke-width="0.008" />
<rect x="4.775" y="155.200" width="0.825" height="1.350" fill="#F18F4C" opacity="0.95" stroke="#9A3F0A" stroke-width="0.008" />
<rect x="5.600" y="155.200" width="0.900" height="0.577" fill="#F18F4C" opacity="0.95" stroke="#9A3F0A" stroke-width="0.008" />
<rect x="5.600" y="156.123" width="0.900" height="0.427" fill="#F18F4C" opacity="0.95" stroke="#9A3F0A" stroke-width="0.008" />
<rect x="5.600" y="155.777" width="0.230" height="0.347" fill="#F18F4C" opacity="0.95" stroke="#9A3F0A" stroke-width="0.008" />
<rect x="6.270" y="155.777" width="0.230" height="0.347" fill="#F18F4C" opacity="0.95" stroke="#9A3F0A" stroke-width="0.008" />
<rect x="6.500" y="155.200" width="0.450" height="1.350" fill="#F18F4C" opacity="0.95" stroke="#9A3F0A" stroke-width="0.008" />
<rect x="1.550" y="156.409" width="5.400" height="0.028" fill="#E4DECF" opacity="0.7" stroke="#BBB2A0" stroke-width="0.008" />
<rect x="1.550" y="155.200" width="5.400" height="0.028" fill="#E4DECF" opacity="0.7" stroke="#BBB2A0" stroke-width="0.008" />
<rect x="6.922" y="155.200" width="0.028" height="1.350" fill="#E4DECF" opacity="0.7" stroke="#BBB2A0" stroke-width="0.008" />
<rect x="2.759" y="156.550" width="0.028" height="3.150" fill="#E4DECF" opacity="0.7" stroke="#BBB2A0" stroke-width="0.008" />
<rect x="1.550" y="156.550" width="0.028" height="3.150" fill="#E4DECF" opacity="0.7" stroke="#BBB2A0" stroke-width="0.008" />
<rect x="1.550" y="159.672" width="1.350" height="0.028" fill="#E4DECF" opacity="0.7" stroke="#BBB2A0" stroke-width="0.008" />
<text x="1.550" y="155.140" font-size="0.09" fill="#555" font-weight="normal" text-anchor="start" font-family="Helvetica,Arial,sans-serif">X = back wall (in)</text>
<text x="1.500" y="159.820" font-size="0.09" fill="#555" font-weight="normal" text-anchor="start" font-family="Helvetica,Arial,sans-serif">Y = depth into room (in)</text>
<text x="7.820" y="155.380" font-size="0.09" fill="#555" font-weight="normal" text-anchor="end" font-family="Helvetica,Arial,sans-serif">BACK WALL (windows) is at TOP of plan</text>
<text x="7.820" y="155.520" font-size="0.09" fill="#555" font-weight="normal" text-anchor="end" font-family="Helvetica,Arial,sans-serif">LHS wall (garage door side) is at LEFT</text>
<rect x="0.500" y="159.950" width="7.500" height="3.950" fill="#FFFFFF" opacity="1.0" stroke="#E0DCC8" stroke-width="0.01" rx="0.05" ry="0.05" />
<rect x="6.000" y="160.050" width="1.900" height="3.750" fill="#F2EFE2" opacity="1.0" rx="0.04" ry="0.04" />
<text x="6.120" y="160.300" font-size="0.11" fill="#4A6FA5" font-weight="bold" text-anchor="start" font-family="Helvetica,Arial,sans-serif">TOOLS</text>
<text x="6.120" y="160.480" font-size="0.11" fill="#1A1A1A" font-weight="normal" text-anchor="start" font-family="Helvetica,Arial,sans-serif">- Clamps (8+)</text>
<text x="6.120" y="160.660" font-size="0.11" fill="#1A1A1A" font-weight="normal" text-anchor="start" font-family="Helvetica,Arial,sans-serif">- Drill</text>
<text x="6.120" y="160.840" font-size="0.11" fill="#1A1A1A" font-weight="normal" text-anchor="start" font-family="Helvetica,Arial,sans-serif">- Impact driver</text>
<text x="6.120" y="161.020" font-size="0.11" fill="#1A1A1A" font-weight="normal" text-anchor="start" font-family="Helvetica,Arial,sans-serif">- PL Premium</text>
<text x="6.120" y="161.200" font-size="0.11" fill="#1A1A1A" font-weight="normal" text-anchor="start" font-family="Helvetica,Arial,sans-serif">- Wood glue</text>
<text x="6.120" y="161.380" font-size="0.11" fill="#1A1A1A" font-weight="normal" text-anchor="start" font-family="Helvetica,Arial,sans-serif">- Screws</text>
<text x="6.120" y="161.740" font-size="0.11" fill="#6C8C3B" font-weight="bold" text-anchor="start" font-family="Helvetica,Arial,sans-serif">TIME</text>
<text x="6.120" y="161.920" font-size="0.11" fill="#1A1A1A" font-weight="normal" text-anchor="start" font-family="Helvetica,Arial,sans-serif">3 hours + glue cure</text>
<text x="0.750" y="160.350" font-size="0.16" fill="#1A1A1A" font-weight="bold" text-anchor="start" font-family="Helvetica,Arial,sans-serif">Instructions</text>
<text x="0.750" y="160.650" font-size="0.13" fill="#1A1A1A" font-weight="normal" text-anchor="start" font-family="Helvetica,Arial,sans-serif">Each top panel is DOUBLED 3/4 in ply = 1.5 in finished thickness.</text>
<text x="0.750" y="160.850" font-size="0.13" fill="#1A1A1A" font-weight="normal" text-anchor="start" font-family="Helvetica,Arial,sans-serif">Glue the 2 plies together BEFORE installing:</text>
<text x="0.750" y="161.050" font-size="0.13" fill="#1A1A1A" font-weight="normal" text-anchor="start" font-family="Helvetica,Arial,sans-serif">  - PL Premium adhesive in a serpentine on the lower ply</text>
<text x="0.750" y="161.250" font-size="0.13" fill="#1A1A1A" font-weight="normal" text-anchor="start" font-family="Helvetica,Arial,sans-serif">  - Drop upper ply, drive #8 x 1.25 screws at 6 in OC</text>
<text x="0.750" y="161.450" font-size="0.13" fill="#1A1A1A" font-weight="normal" text-anchor="start" font-family="Helvetica,Arial,sans-serif">  - Clamp for 1 hour minimum before moving</text>
<text x="0.750" y="161.650" font-size="0.13" fill="#1A1A1A" font-weight="normal" text-anchor="start" font-family="Helvetica,Arial,sans-serif">Install from corner outward:</text>
<text x="0.750" y="161.850" font-size="0.13" fill="#1A1A1A" font-weight="normal" text-anchor="start" font-family="Helvetica,Arial,sans-serif">  1. TopLeg_Top_Left (50 x 36)</text>
<text x="0.750" y="162.050" font-size="0.13" fill="#1A1A1A" font-weight="normal" text-anchor="start" font-family="Helvetica,Arial,sans-serif">  2. Miter recess floor (36 x 30) + lips (36 x 2 back, 36 x 4 front)</text>
<text x="0.750" y="162.250" font-size="0.13" fill="#1A1A1A" font-weight="normal" text-anchor="start" font-family="Helvetica,Arial,sans-serif">  3. TopLeg_Top_MidRight (36 x 22)</text>
<text x="0.750" y="162.450" font-size="0.13" fill="#1A1A1A" font-weight="normal" text-anchor="start" font-family="Helvetica,Arial,sans-serif">  4. Router area sub-panels (4 small pieces around insert plate)</text>
<text x="0.750" y="162.650" font-size="0.13" fill="#1A1A1A" font-weight="normal" text-anchor="start" font-family="Helvetica,Arial,sans-serif">  5. TopLeg_Top_FarRight (36 x 12)</text>
<rect x="0.750" y="163.530" width="0.180" height="0.100" fill="#F18F4C" opacity="1.0" stroke="#9A3F0A" stroke-width="0.005" />
<text x="0.990" y="163.610" font-size="0.1" fill="#1A1A1A" font-weight="normal" text-anchor="start" font-family="Helvetica,Arial,sans-serif">New this step</text>
<rect x="2.250" y="163.530" width="0.180" height="0.100" fill="#E4DECF" opacity="1.0" stroke="#BBB2A0" stroke-width="0.005" />
<text x="2.490" y="163.610" font-size="0.1" fill="#1A1A1A" font-weight="normal" text-anchor="start" font-family="Helvetica,Arial,sans-serif">Already built</text>
</svg>