mtllib woodshop_layout.mtl

o Floor
usemtl floor
v 0.0000 0.0000 -1.0000
v 240.0000 0.0000 -1.0000
v 240.0000 120.0000 -1.0000
v 0.0000 120.0000 -1.0000
v 0.0000 0.0000 0.0000
v 240.0000 0.0000 0.0000
v 240.0000 120.0000 0.0000
v 0.0000 120.0000 0.0000
f 1 4 3
f 1 3 2
f 5 6 7
f 5 7 8
f 1 2 6
f 1 6 5
f 3 4 8
f 3 8 7
f 2 3 7
f 2 7 6
f 4 1 5
f 4 5 8

o Wall_Back
usemtl wall
v 0.0000 -2.0000 0.0000
v 240.0000 -2.0000 0.0000
v 240.0000 0.0000 0.0000
v 0.0000 0.0000 0.0000
v 0.0000 -2.0000 96.0000
v 240.0000 -2.0000 96.0000
v 240.0000 0.0000 96.0000
v 0.0000 0.0000 96.0000
f 9 12 11
f 9 11 10
f 13 14 15
f 13 15 16
f 9 10 14
f 9 14 13
f 11 12 16
f 11 16 15
f 10 11 15
f 10 15 14
f 12 9 13
f 12 13 16

o Wall_Left
usemtl wall
v -2.0000 0.0000 0.0000
v 0.0000 0.0000 0.0000
v 0.0000 120.0000 0.0000
v -2.0000 120.0000 0.0000
v -2.0000 0.0000 96.0000
v 0.0000 0.0000 96.0000
v 0.0000 120.0000 96.0000
v -2.0000 120.0000 96.0000
f 17 20 19
f 17 19 18
f 21 22 23
f 21 23 24
f 17 18 22
f 17 22 21
f 19 20 24
f 19 24 23
f 18 19 23
f 18 23 22
f 20 17 21
f 20 21 24

o Wall_Right
usemtl wall
v 240.0000 0.0000 0.0000
v 242.0000 0.0000 0.0000
v 242.0000 120.0000 0.0000
v 240.0000 120.0000 0.0000
v 240.0000 0.0000 96.0000
v 242.0000 0.0000 96.0000
v 242.0000 120.0000 96.0000
v 240.0000 120.0000 96.0000
f 25 28 27
f 25 27 26
f 29 30 31
f 29 31 32
f 25 26 30
f 25 30 29
f 27 28 32
f 27 32 31
f 26 27 31
f 26 31 30
f 28 25 29
f 28 29 32

o Wall_Front
usemtl wall
v 0.0000 120.0000 0.0000
v 240.0000 120.0000 0.0000
v 240.0000 122.0000 0.0000
v 0.0000 122.0000 0.0000
v 0.0000 120.0000 96.0000
v 240.0000 120.0000 96.0000
v 240.0000 122.0000 96.0000
v 0.0000 122.0000 96.0000
f 33 36 35
f 33 35 34
f 37 38 39
f 37 39 40
f 33 34 38
f 33 38 37
f 35 36 40
f 35 40 39
f 34 35 39
f 34 39 38
f 36 33 37
f 36 37 40

o L_Bench_Top_Leg
usemtl bench
v 0.0000 0.0000 0.0000
v 144.0000 0.0000 0.0000
v 144.0000 36.0000 0.0000
v 0.0000 36.0000 0.0000
v 0.0000 0.0000 37.0000
v 144.0000 0.0000 37.0000
v 144.0000 36.0000 37.0000
v 0.0000 36.0000 37.0000
f 41 44 43
f 41 43 42
f 45 46 47
f 45 47 48
f 41 42 46
f 41 46 45
f 43 44 48
f 43 48 47
f 42 43 47
f 42 47 46
f 44 41 45
f 44 45 48

o L_Bench_Left_Leg
usemtl bench
v 0.0000 36.0000 0.0000
v 36.0000 36.0000 0.0000
v 36.0000 120.0000 0.0000
v 0.0000 120.0000 0.0000
v 0.0000 36.0000 37.0000
v 36.0000 36.0000 37.0000
v 36.0000 120.0000 37.0000
v 0.0000 120.0000 37.0000
f 49 52 51
f 49 51 50
f 53 54 55
f 53 55 56
f 49 50 54
f 49 54 53
f 51 52 56
f 51 56 55
f 50 51 55
f 50 55 54
f 52 49 53
f 52 53 56

o Existing_3x8_Workbench
usemtl bench_existing
v 144.0000 0.0000 0.0000
v 240.0000 0.0000 0.0000
v 240.0000 36.0000 0.0000
v 144.0000 36.0000 0.0000
v 144.0000 0.0000 37.0000
v 240.0000 0.0000 37.0000
v 240.0000 36.0000 37.0000
v 144.0000 36.0000 37.0000
f 57 60 59
f 57 59 58
f 61 62 63
f 61 63 64
f 57 58 62
f 57 62 61
f 59 60 64
f 59 64 63
f 58 59 63
f 58 63 62
f 60 57 61
f 60 61 64

o Tall_Husky_40x18x36
usemtl cabinet
v 148.0000 12.0000 0.0000
v 188.0000 12.0000 0.0000
v 188.0000 30.0000 0.0000
v 148.0000 30.0000 0.0000
v 148.0000 12.0000 36.0000
v 188.0000 12.0000 36.0000
v 188.0000 30.0000 36.0000
v 148.0000 30.0000 36.0000
f 65 68 67
f 65 67 66
f 69 70 71
f 69 71 72
f 65 66 70
f 65 70 69
f 67 68 72
f 67 72 71
f 66 67 71
f 66 71 70
f 68 65 69
f 68 69 72

o Tall_Husky_Shim
usemtl platform
v 148.0000 12.0000 36.0000
v 188.0000 12.0000 36.0000
v 188.0000 30.0000 36.0000
v 148.0000 30.0000 36.0000
v 148.0000 12.0000 37.0000
v 188.0000 12.0000 37.0000
v 188.0000 30.0000 37.0000
v 148.0000 30.0000 37.0000
f 73 76 75
f 73 75 74
f 77 78 79
f 77 79 80
f 73 74 78
f 73 78 77
f 75 76 80
f 75 80 79
f 74 75 79
f 74 79 78
f 76 73 77
f 76 77 80

o Short_Husky_Plinth
usemtl plinth
v 196.0000 12.0000 0.0000
v 236.0000 12.0000 0.0000
v 236.0000 30.0000 0.0000
v 196.0000 30.0000 0.0000
v 196.0000 12.0000 16.0000
v 236.0000 12.0000 16.0000
v 236.0000 30.0000 16.0000
v 196.0000 30.0000 16.0000
f 81 84 83
f 81 83 82
f 85 86 87
f 85 87 88
f 81 82 86
f 81 86 85
f 83 84 88
f 83 88 87
f 82 83 87
f 82 87 86
f 84 81 85
f 84 85 88

o Short_Husky_40x18x20
usemtl cabinet
v 196.0000 12.0000 16.0000
v 236.0000 12.0000 16.0000
v 236.0000 30.0000 16.0000
v 196.0000 30.0000 16.0000
v 196.0000 12.0000 36.0000
v 236.0000 12.0000 36.0000
v 236.0000 30.0000 36.0000
v 196.0000 30.0000 36.0000
f 89 92 91
f 89 91 90
f 93 94 95
f 93 95 96
f 89 90 94
f 89 94 93
f 91 92 96
f 91 96 95
f 90 91 95
f 90 95 94
f 92 89 93
f 92 93 96

o Short_Husky_Shim
usemtl platform
v 196.0000 12.0000 36.0000
v 236.0000 12.0000 36.0000
v 236.0000 30.0000 36.0000
v 196.0000 30.0000 36.0000
v 196.0000 12.0000 37.0000
v 236.0000 12.0000 37.0000
v 236.0000 30.0000 37.0000
v 196.0000 30.0000 37.0000
f 97 100 99
f 97 99 98
f 101 102 103
f 101 103 104
f 97 98 102
f 97 102 101
f 99 100 104
f 99 104 103
f 98 99 103
f 98 103 102
f 100 97 101
f 100 101 104

o Miter_Saw_Recess_Surround
usemtl platform
v 50.0000 2.0000 36.5000
v 86.0000 2.0000 36.5000
v 86.0000 32.0000 36.5000
v 50.0000 32.0000 36.5000
v 50.0000 2.0000 37.0000
v 86.0000 2.0000 37.0000
v 86.0000 32.0000 37.0000
v 50.0000 32.0000 37.0000
f 105 108 107
f 105 107 106
f 109 110 111
f 109 111 112
f 105 106 110
f 105 110 109
f 107 108 112
f 107 112 111
f 106 107 111
f 106 111 110
f 108 105 109
f 108 109 112

o Miter_Saw_Body
usemtl tool_yellow
v 54.0000 4.0000 33.0000
v 84.0000 4.0000 33.0000
v 84.0000 28.0000 33.0000
v 54.0000 28.0000 33.0000
v 54.0000 4.0000 45.0000
v 84.0000 4.0000 45.0000
v 84.0000 28.0000 45.0000
v 54.0000 28.0000 45.0000
f 113 116 115
f 113 115 114
f 117 118 119
f 117 119 120
f 113 114 118
f 113 118 117
f 115 116 120
f 115 120 119
f 114 115 119
f 114 119 118
f 116 113 117
f 116 117 120

o Router_Table_Cabinet
usemtl tool_dark
v 108.0000 4.0000 0.0000
v 132.0000 4.0000 0.0000
v 132.0000 36.0000 0.0000
v 108.0000 36.0000 0.0000
v 108.0000 4.0000 37.0000
v 132.0000 4.0000 37.0000
v 132.0000 36.0000 37.0000
v 108.0000 36.0000 37.0000
f 121 124 123
f 121 123 122
f 125 126 127
f 125 127 128
f 121 122 126
f 121 126 125
f 123 124 128
f 123 128 127
f 122 123 127
f 122 127 126
f 124 121 125
f 124 125 128

o Router_Table_Insert
usemtl tool_metal
v 108.0000 4.0000 37.0000
v 132.0000 4.0000 37.0000
v 132.0000 36.0000 37.0000
v 108.0000 36.0000 37.0000
v 108.0000 4.0000 37.5000
v 132.0000 4.0000 37.5000
v 132.0000 36.0000 37.5000
v 108.0000 36.0000 37.5000
f 129 132 131
f 129 131 130
f 133 134 135
f 133 135 136
f 129 130 134
f 129 134 133
f 131 132 136
f 131 136 135
f 130 131 135
f 130 135 134
f 132 129 133
f 132 133 136

o Planer_Lift_Cavity
usemtl ghost
v 3.0000 42.0000 0.0000
v 33.0000 42.0000 0.0000
v 33.0000 72.0000 0.0000
v 3.0000 72.0000 0.0000
v 3.0000 42.0000 37.0000
v 33.0000 42.0000 37.0000
v 33.0000 72.0000 37.0000
v 3.0000 72.0000 37.0000
f 137 140 139
f 137 139 138
f 141 142 143
f 141 143 144
f 137 138 142
f 137 142 141
f 139 140 144
f 139 144 143
f 138 139 143
f 138 143 142
f 140 137 141
f 140 141 144

o Planer_Lowered
usemtl tool_yellow
v 5.0000 44.0000 16.0000
v 31.0000 44.0000 16.0000
v 31.0000 66.0000 16.0000
v 5.0000 66.0000 16.0000
v 5.0000 44.0000 32.0000
v 31.0000 44.0000 32.0000
v 31.0000 66.0000 32.0000
v 5.0000 66.0000 32.0000
f 145 148 147
f 145 147 146
f 149 150 151
f 149 151 152
f 145 146 150
f 145 150 149
f 147 148 152
f 147 152 151
f 146 147 151
f 146 151 150
f 148 145 149
f 148 149 152

o Planer_Raised_Ghost
usemtl ghost_planer
v 3.0000 42.0000 36.7500
v 33.0000 42.0000 36.7500
v 33.0000 72.0000 36.7500
v 3.0000 72.0000 36.7500
v 3.0000 42.0000 38.7500
v 33.0000 42.0000 38.7500
v 33.0000 72.0000 38.7500
v 3.0000 72.0000 38.7500
f 153 156 155
f 153 155 154
f 157 158 159
f 157 159 160
f 153 154 158
f 153 158 157
f 155 156 160
f 155 160 159
f 154 155 159
f 154 159 158
f 156 153 157
f 156 157 160

o Table_Saw_Platform
usemtl platform
v 42.0000 60.0000 0.0000
v 78.0000 60.0000 0.0000
v 78.0000 96.0000 0.0000
v 42.0000 96.0000 0.0000
v 42.0000 60.0000 3.0000
v 78.0000 60.0000 3.0000
v 78.0000 96.0000 3.0000
v 42.0000 96.0000 3.0000
f 161 164 163
f 161 163 162
f 165 166 167
f 165 167 168
f 161 162 166
f 161 166 165
f 163 164 168
f 163 168 167
f 162 163 167
f 162 167 166
f 164 161 165
f 164 165 168

o Table_Saw_Body
usemtl tool_yellow
v 44.0000 62.0000 3.0000
v 76.0000 62.0000 3.0000
v 76.0000 94.0000 3.0000
v 44.0000 94.0000 3.0000
v 44.0000 62.0000 37.0000
v 76.0000 62.0000 37.0000
v 76.0000 94.0000 37.0000
v 44.0000 94.0000 37.0000
f 169 172 171
f 169 171 170
f 173 174 175
f 173 175 176
f 169 170 174
f 169 174 173
f 171 172 176
f 171 176 175
f 170 171 175
f 170 175 174
f 172 169 173
f 172 173 176

o Drill_Press_Column
usemtl tool_metal
v 198.0000 6.0000 37.0000
v 216.0000 6.0000 37.0000
v 216.0000 24.0000 37.0000
v 198.0000 24.0000 37.0000
v 198.0000 6.0000 73.0000
v 216.0000 6.0000 73.0000
v 216.0000 24.0000 73.0000
v 198.0000 24.0000 73.0000
f 177 180 179
f 177 179 178
f 181 182 183
f 181 183 184
f 177 178 182
f 177 182 181
f 179 180 184
f 179 184 183
f 178 179 183
f 178 183 182
f 180 177 181
f 180 181 184

o Laser_Rolling_Table
usemtl tool_dark
v 180.0000 60.0000 0.0000
v 228.0000 60.0000 0.0000
v 228.0000 108.0000 0.0000
v 180.0000 108.0000 0.0000
v 180.0000 60.0000 34.0000
v 228.0000 60.0000 34.0000
v 228.0000 108.0000 34.0000
v 180.0000 108.0000 34.0000
f 185 188 187
f 185 187 186
f 189 190 191
f 189 191 192
f 185 186 190
f 185 190 189
f 187 188 192
f 187 192 191
f 186 187 191
f 186 191 190
f 188 185 189
f 188 189 192

o Laser_Enclosure
usemtl tool_metal
v 186.0000 66.0000 34.0000
v 222.0000 66.0000 34.0000
v 222.0000 96.0000 34.0000
v 186.0000 96.0000 34.0000
v 186.0000 66.0000 54.0000
v 222.0000 66.0000 54.0000
v 222.0000 96.0000 54.0000
v 186.0000 96.0000 54.0000
f 193 196 195
f 193 195 194
f 197 198 199
f 197 199 200
f 193 194 198
f 193 198 197
f 195 196 200
f 195 200 199
f 194 195 199
f 194 199 198
f 196 193 197
f 196 197 200

o Drop_Miter_BlastGate
usemtl blast_gate
v 66.0000 9.0000 56.0000
v 72.0000 9.0000 56.0000
v 72.0000 15.0000 56.0000
v 66.0000 15.0000 56.0000
v 66.0000 9.0000 60.0000
v 72.0000 9.0000 60.0000
v 72.0000 15.0000 60.0000
v 66.0000 15.0000 60.0000
f 201 204 203
f 201 203 202
f 205 206 207
f 205 207 208
f 201 202 206
f 201 206 205
f 203 204 208
f 203 208 207
f 202 203 207
f 202 207 206
f 204 201 205
f 204 205 208

o Drop_Miter_FlexHose_Approx
usemtl duct_flex
v 67.5000 10.5000 36.5000
v 70.5000 10.5000 36.5000
v 70.5000 17.5000 36.5000
v 67.5000 17.5000 36.5000
v 67.5000 10.5000 57.5000
v 70.5000 10.5000 57.5000
v 70.5000 17.5000 57.5000
v 67.5000 17.5000 57.5000
f 209 212 211
f 209 211 210
f 213 214 215
f 213 215 216
f 209 210 214
f 209 214 213
f 211 212 216
f 211 216 215
f 210 211 215
f 210 215 214
f 212 209 213
f 212 213 216

o Drop_Router_BlastGate
usemtl blast_gate
v 117.0000 9.0000 56.0000
v 123.0000 9.0000 56.0000
v 123.0000 15.0000 56.0000
v 117.0000 15.0000 56.0000
v 117.0000 9.0000 60.0000
v 123.0000 9.0000 60.0000
v 123.0000 15.0000 60.0000
v 117.0000 15.0000 60.0000
f 217 220 219
f 217 219 218
f 221 222 223
f 221 223 224
f 217 218 222
f 217 222 221
f 219 220 224
f 219 224 223
f 218 219 223
f 218 223 222
f 220 217 221
f 220 221 224

o Drop_Router_FlexHose_Approx
usemtl duct_flex
v 118.5000 10.5000 36.5000
v 121.5000 10.5000 36.5000
v 121.5000 21.5000 36.5000
v 118.5000 21.5000 36.5000
v 118.5000 10.5000 57.5000
v 121.5000 10.5000 57.5000
v 121.5000 21.5000 57.5000
v 118.5000 21.5000 57.5000
f 225 228 227
f 225 227 226
f 229 230 231
f 229 231 232
f 225 226 230
f 225 230 229
f 227 228 232
f 227 232 231
f 226 227 231
f 226 231 230
f 228 225 229
f 228 229 232

o Drop_Planer_BlastGate
usemtl blast_gate
v 15.0000 54.0000 56.0000
v 21.0000 54.0000 56.0000
v 21.0000 60.0000 56.0000
v 15.0000 60.0000 56.0000
v 15.0000 54.0000 60.0000
v 21.0000 54.0000 60.0000
v 21.0000 60.0000 60.0000
v 15.0000 60.0000 60.0000
f 233 236 235
f 233 235 234
f 237 238 239
f 237 239 240
f 233 234 238
f 233 238 237
f 235 236 240
f 235 240 239
f 234 235 239
f 234 239 238
f 236 233 237
f 236 237 240

o Drop_Planer_FlexHose_Approx
usemtl duct_flex
v 16.5000 55.5000 22.5000
v 19.5000 55.5000 22.5000
v 19.5000 58.5000 22.5000
v 16.5000 58.5000 22.5000
v 16.5000 55.5000 57.5000
v 19.5000 55.5000 57.5000
v 19.5000 58.5000 57.5000
v 16.5000 58.5000 57.5000
f 241 244 243
f 241 243 242
f 245 246 247
f 245 247 248
f 241 242 246
f 241 246 245
f 243 244 248
f 243 248 247
f 242 243 247
f 242 247 246
f 244 241 245
f 244 245 248

o Drop_TableSaw_BlastGate
usemtl blast_gate
v 15.0000 75.0000 56.0000
v 21.0000 75.0000 56.0000
v 21.0000 81.0000 56.0000
v 15.0000 81.0000 56.0000
v 15.0000 75.0000 60.0000
v 21.0000 75.0000 60.0000
v 21.0000 81.0000 60.0000
v 15.0000 81.0000 60.0000
f 249 252 251
f 249 251 250
f 253 254 255
f 253 255 256
f 249 250 254
f 249 254 253
f 251 252 256
f 251 256 255
f 250 251 255
f 250 255 254
f 252 249 253
f 252 253 256

o Drop_TableSaw_FlexHose_Approx
usemtl duct_flex
v 16.5000 76.5000 16.5000
v 61.5000 76.5000 16.5000
v 61.5000 79.5000 16.5000
v 16.5000 79.5000 16.5000
v 16.5000 76.5000 57.5000
v 61.5000 76.5000 57.5000
v 61.5000 79.5000 57.5000
v 16.5000 79.5000 57.5000
f 257 260 259
f 257 259 258
f 261 262 263
f 261 263 264
f 257 258 262
f 257 262 261
f 259 260 264
f 259 264 263
f 258 259 263
f 258 263 262
f 260 257 261
f 260 261 264

o Air_Filter_DWXAF101
usemtl air_filter
v 138.0000 54.0000 84.0000
v 162.0000 54.0000 84.0000
v 162.0000 72.0000 84.0000
v 138.0000 72.0000 84.0000
v 138.0000 54.0000 96.0000
v 162.0000 54.0000 96.0000
v 162.0000 72.0000 96.0000
v 138.0000 72.0000 96.0000
f 265 268 267
f 265 267 266
f 269 270 271
f 269 271 272
f 265 266 270
f 265 270 269
f 267 268 272
f 267 272 271
f 266 267 271
f 266 271 270
f 268 265 269
f 268 269 272

o Box_Fan_1
usemtl fan
v 12.0000 100.0000 6.0000
v 32.0000 100.0000 6.0000
v 32.0000 104.0000 6.0000
v 12.0000 104.0000 6.0000
v 12.0000 100.0000 26.0000
v 32.0000 100.0000 26.0000
v 32.0000 104.0000 26.0000
v 12.0000 104.0000 26.0000
f 273 276 275
f 273 275 274
f 277 278 279
f 277 279 280
f 273 274 278
f 273 278 277
f 275 276 280
f 275 280 279
f 274 275 279
f 274 279 278
f 276 273 277
f 276 277 280

o Box_Fan_2
usemtl fan
v 208.0000 100.0000 6.0000
v 228.0000 100.0000 6.0000
v 228.0000 104.0000 6.0000
v 208.0000 104.0000 6.0000
v 208.0000 100.0000 26.0000
v 228.0000 100.0000 26.0000
v 228.0000 104.0000 26.0000
v 208.0000 104.0000 26.0000
f 281 284 283
f 281 283 282
f 285 286 287
f 285 287 288
f 281 282 286
f 281 286 285
f 283 284 288
f 283 288 287
f 282 283 287
f 282 287 286
f 284 281 285
f 284 285 288

o Curtain_Track
usemtl tool_metal
v 0.0000 107.5000 94.0000
v 240.0000 107.5000 94.0000
v 240.0000 108.5000 94.0000
v 0.0000 108.5000 94.0000
v 0.0000 107.5000 96.0000
v 240.0000 107.5000 96.0000
v 240.0000 108.5000 96.0000
v 0.0000 108.5000 96.0000
f 289 292 291
f 289 291 290
f 293 294 295
f 293 295 296
f 289 290 294
f 289 294 293
f 291 292 296
f 291 296 295
f 290 291 295
f 290 295 294
f 292 289 293
f 292 293 296

o Curtain_Closed
usemtl curtain
v 0.0000 107.7500 0.0000
v 240.0000 107.7500 0.0000
v 240.0000 108.2500 0.0000
v 0.0000 108.2500 0.0000
v 0.0000 107.7500 94.0000
v 240.0000 107.7500 94.0000
v 240.0000 108.2500 94.0000
v 0.0000 108.2500 94.0000
f 297 300 299
f 297 299 298
f 301 302 303
f 301 303 304
f 297 298 302
f 297 302 301
f 299 300 304
f 299 304 303
f 298 299 303
f 298 303 302
f 300 297 301
f 300 301 304

o Curtain_Open_Stack
usemtl curtain
v 228.0000 106.0000 0.0000
v 240.0000 106.0000 0.0000
v 240.0000 110.0000 0.0000
v 228.0000 110.0000 0.0000
v 228.0000 106.0000 94.0000
v 240.0000 106.0000 94.0000
v 240.0000 110.0000 94.0000
v 228.0000 110.0000 94.0000
f 305 308 307
f 305 307 306
f 309 310 311
f 309 311 312
f 305 306 310
f 305 310 309
f 307 308 312
f 307 312 311
f 306 307 311
f 306 311 310
f 308 305 309
f 308 309 312

o LED_Shop_Light_1_BackBench
usemtl light
v 48.0000 16.0000 94.0000
v 96.0000 16.0000 94.0000
v 96.0000 20.0000 94.0000
v 48.0000 20.0000 94.0000
v 48.0000 16.0000 96.0000
v 96.0000 16.0000 96.0000
v 96.0000 20.0000 96.0000
v 48.0000 20.0000 96.0000
f 313 316 315
f 313 315 314
f 317 318 319
f 317 319 320
f 313 314 318
f 313 318 317
f 315 316 320
f 315 320 319
f 314 315 319
f 314 319 318
f 316 313 317
f 316 317 320

o LED_Shop_Light_2_LeftLeg
usemtl light
v 6.0000 58.0000 94.0000
v 54.0000 58.0000 94.0000
v 54.0000 62.0000 94.0000
v 6.0000 62.0000 94.0000
v 6.0000 58.0000 96.0000
v 54.0000 58.0000 96.0000
v 54.0000 62.0000 96.0000
v 6.0000 62.0000 96.0000
f 321 324 323
f 321 323 322
f 325 326 327
f 325 327 328
f 321 322 326
f 321 326 325
f 323 324 328
f 323 328 327
f 322 323 327
f 322 327 326
f 324 321 325
f 324 325 328

o LED_Shop_Light_3_OpenZone
usemtl light
v 144.0000 58.0000 94.0000
v 192.0000 58.0000 94.0000
v 192.0000 62.0000 94.0000
v 144.0000 62.0000 94.0000
v 144.0000 58.0000 96.0000
v 192.0000 58.0000 96.0000
v 192.0000 62.0000 96.0000
v 144.0000 62.0000 96.0000
f 329 332 331
f 329 331 330
f 333 334 335
f 333 335 336
f 329 330 334
f 329 334 333
f 331 332 336
f 331 336 335
f 330 331 335
f 330 335 334
f 332 329 333
f 332 333 336

o Outlet_Back_24in
usemtl circuit_d
v 22.5000 0.0000 44.0000
v 25.5000 0.0000 44.0000
v 25.5000 1.0000 44.0000
v 22.5000 1.0000 44.0000
v 22.5000 0.0000 49.0000
v 25.5000 0.0000 49.0000
v 25.5000 1.0000 49.0000
v 22.5000 1.0000 49.0000
f 337 340 339
f 337 339 338
f 341 342 343
f 341 343 344
f 337 338 342
f 337 342 341
f 339 340 344
f 339 344 343
f 338 339 343
f 338 343 342
f 340 337 341
f 340 341 344

o Outlet_Back_72in
usemtl circuit_b
v 70.5000 0.0000 44.0000
v 73.5000 0.0000 44.0000
v 73.5000 1.0000 44.0000
v 70.5000 1.0000 44.0000
v 70.5000 0.0000 49.0000
v 73.5000 0.0000 49.0000
v 73.5000 1.0000 49.0000
v 70.5000 1.0000 49.0000
f 345 348 347
f 345 347 346
f 349 350 351
f 349 351 352
f 345 346 350
f 345 350 349
f 347 348 352
f 347 352 351
f 346 347 351
f 346 351 350
f 348 345 349
f 348 349 352

o Outlet_Back_120in
usemtl circuit_d
v 118.5000 0.0000 44.0000
v 121.5000 0.0000 44.0000
v 121.5000 1.0000 44.0000
v 118.5000 1.0000 44.0000
v 118.5000 0.0000 49.0000
v 121.5000 0.0000 49.0000
v 121.5000 1.0000 49.0000
v 118.5000 1.0000 49.0000
f 353 356 355
f 353 355 354
f 357 358 359
f 357 359 360
f 353 354 358
f 353 358 357
f 355 356 360
f 355 360 359
f 354 355 359
f 354 359 358
f 356 353 357
f 356 357 360

o Outlet_Back_168in
usemtl circuit_b
v 166.5000 0.0000 44.0000
v 169.5000 0.0000 44.0000
v 169.5000 1.0000 44.0000
v 166.5000 1.0000 44.0000
v 166.5000 0.0000 49.0000
v 169.5000 0.0000 49.0000
v 169.5000 1.0000 49.0000
v 166.5000 1.0000 49.0000
f 361 364 363
f 361 363 362
f 365 366 367
f 365 367 368
f 361 362 366
f 361 366 365
f 363 364 368
f 363 368 367
f 362 363 367
f 362 367 366
f 364 361 365
f 364 365 368

o Outlet_Back_216in
usemtl circuit_d
v 214.5000 0.0000 44.0000
v 217.5000 0.0000 44.0000
v 217.5000 1.0000 44.0000
v 214.5000 1.0000 44.0000
v 214.5000 0.0000 49.0000
v 217.5000 0.0000 49.0000
v 217.5000 1.0000 49.0000
v 214.5000 1.0000 49.0000
f 369 372 371
f 369 371 370
f 373 374 375
f 373 375 376
f 369 370 374
f 369 374 373
f 371 372 376
f 371 376 375
f 370 371 375
f 370 375 374
f 372 369 373
f 372 373 376

o Outlet_Left_60in
usemtl circuit_c
v 0.0000 58.5000 44.0000
v 1.0000 58.5000 44.0000
v 1.0000 61.5000 44.0000
v 0.0000 61.5000 44.0000
v 0.0000 58.5000 49.0000
v 1.0000 58.5000 49.0000
v 1.0000 61.5000 49.0000
v 0.0000 61.5000 49.0000
f 377 380 379
f 377 379 378
f 381 382 383
f 381 383 384
f 377 378 382
f 377 382 381
f 379 380 384
f 379 384 383
f 378 379 383
f 378 383 382
f 380 377 381
f 380 381 384

o Outlet_Left_108in
usemtl circuit_b
v 0.0000 106.5000 44.0000
v 1.0000 106.5000 44.0000
v 1.0000 109.5000 44.0000
v 0.0000 109.5000 44.0000
v 0.0000 106.5000 49.0000
v 1.0000 106.5000 49.0000
v 1.0000 109.5000 49.0000
v 0.0000 109.5000 49.0000
f 385 388 387
f 385 387 386
f 389 390 391
f 389 391 392
f 385 386 390
f 385 390 389
f 387 388 392
f 387 392 391
f 386 387 391
f 386 391 390
f 388 385 389
f 388 389 392

o Outlet_Right_24in
usemtl circuit_b
v 239.0000 22.5000 44.0000
v 240.0000 22.5000 44.0000
v 240.0000 25.5000 44.0000
v 239.0000 25.5000 44.0000
v 239.0000 22.5000 49.0000
v 240.0000 22.5000 49.0000
v 240.0000 25.5000 49.0000
v 239.0000 25.5000 49.0000
f 393 396 395
f 393 395 394
f 397 398 399
f 397 399 400
f 393 394 398
f 393 398 397
f 395 396 400
f 395 400 399
f 394 395 399
f 394 399 398
f 396 393 397
f 396 397 400

o Outlet_Right_72in
usemtl circuit_b
v 239.0000 70.5000 44.0000
v 240.0000 70.5000 44.0000
v 240.0000 73.5000 44.0000
v 239.0000 73.5000 44.0000
v 239.0000 70.5000 49.0000
v 240.0000 70.5000 49.0000
v 240.0000 73.5000 49.0000
v 239.0000 73.5000 49.0000
f 401 404 403
f 401 403 402
f 405 406 407
f 405 407 408
f 401 402 406
f 401 406 405
f 403 404 408
f 403 408 407
f 402 403 407
f 402 407 406
f 404 401 405
f 404 405 408

o Outlet_Front_60in
usemtl circuit_d
v 58.5000 119.0000 44.0000
v 61.5000 119.0000 44.0000
v 61.5000 120.0000 44.0000
v 58.5000 120.0000 44.0000
v 58.5000 119.0000 49.0000
v 61.5000 119.0000 49.0000
v 61.5000 120.0000 49.0000
v 58.5000 120.0000 49.0000
f 409 412 411
f 409 411 410
f 413 414 415
f 413 415 416
f 409 410 414
f 409 414 413
f 411 412 416
f 411 416 415
f 410 411 415
f 410 415 414
f 412 409 413
f 412 413 416

o Outlet_Front_180in
usemtl circuit_d
v 178.5000 119.0000 44.0000
v 181.5000 119.0000 44.0000
v 181.5000 120.0000 44.0000
v 178.5000 120.0000 44.0000
v 178.5000 119.0000 49.0000
v 181.5000 119.0000 49.0000
v 181.5000 120.0000 49.0000
v 178.5000 120.0000 49.0000
f 417 420 419
f 417 419 418
f 421 422 423
f 421 423 424
f 417 418 422
f 417 422 421
f 419 420 424
f 419 424 423
f 418 419 423
f 418 423 422
f 420 417 421
f 420 421 424

o Outlet_Ceiling_AirFilter
usemtl circuit_d
v 138.0000 50.0000 94.0000
v 142.0000 50.0000 94.0000
v 142.0000 54.0000 94.0000
v 138.0000 54.0000 94.0000
v 138.0000 50.0000 96.0000
v 142.0000 50.0000 96.0000
v 142.0000 54.0000 96.0000
v 138.0000 54.0000 96.0000
f 425 428 427
f 425 427 426
f 429 430 431
f 429 431 432
f 425 426 430
f 425 430 429
f 427 428 432
f 427 432 431
f 426 427 431
f 426 431 430
f 428 425 429
f 428 429 432

o Outlet_High_DustCollector
usemtl circuit_a
v 118.0000 0.0000 72.0000
v 122.0000 0.0000 72.0000
v 122.0000 1.0000 72.0000
v 118.0000 1.0000 72.0000
v 118.0000 0.0000 77.0000
v 122.0000 0.0000 77.0000
v 122.0000 1.0000 77.0000
v 118.0000 1.0000 77.0000
f 433 436 435
f 433 435 434
f 437 438 439
f 437 439 440
f 433 434 438
f 433 438 437
f 435 436 440
f 435 440 439
f 434 435 439
f 434 439 438
f 436 433 437
f 436 437 440

o Walking_Aisle_Front
usemtl ghost
v 36.0000 84.0000 0.0000
v 240.0000 84.0000 0.0000
v 240.0000 108.0000 0.0000
v 36.0000 108.0000 0.0000
v 36.0000 84.0000 0.2500
v 240.0000 84.0000 0.2500
v 240.0000 108.0000 0.2500
v 36.0000 108.0000 0.2500
f 441 444 443
f 441 443 442
f 445 446 447
f 445 447 448
f 441 442 446
f 441 446 445
f 443 444 448
f 443 448 447
f 442 443 447
f 442 447 446
f 444 441 445
f 444 445 448

o Miter_LongStock_Support_Ghost
usemtl ghost
v 0.0000 0.0000 37.0000
v 240.0000 0.0000 37.0000
v 240.0000 36.0000 37.0000
v 0.0000 36.0000 37.0000
v 0.0000 0.0000 37.2500
v 240.0000 0.0000 37.2500
v 240.0000 36.0000 37.2500
v 0.0000 36.0000 37.2500
f 449 452 451
f 449 451 450
f 453 454 455
f 453 455 456
f 449 450 454
f 449 454 453
f 451 452 456
f 451 456 455
f 450 451 455
f 450 455 454
f 452 449 453
f 452 453 456

o Table_Saw_Outfeed_Ghost
usemtl ghost
v 42.0000 0.0000 0.0000
v 78.0000 0.0000 0.0000
v 78.0000 60.0000 0.0000
v 42.0000 60.0000 0.0000
v 42.0000 0.0000 0.2500
v 78.0000 0.0000 0.2500
v 78.0000 60.0000 0.2500
v 42.0000 60.0000 0.2500
f 457 460 459
f 457 459 458
f 461 462 463
f 461 463 464
f 457 458 462
f 457 462 461
f 459 460 464
f 459 464 463
f 458 459 463
f 458 463 462
f 460 457 461
f 460 461 464

o Table_Saw_Infeed_Ghost
usemtl ghost
v 42.0000 96.0000 0.0000
v 78.0000 96.0000 0.0000
v 78.0000 120.0000 0.0000
v 42.0000 120.0000 0.0000
v 42.0000 96.0000 0.2500
v 78.0000 96.0000 0.2500
v 78.0000 120.0000 0.2500
v 42.0000 120.0000 0.2500
f 465 468 467
f 465 467 466
f 469 470 471
f 469 471 472
f 465 466 470
f 465 470 469
f 467 468 472
f 467 472 471
f 466 467 471
f 466 471 470
f 468 465 469
f 468 469 472

o Planer_Infeed_Ghost
usemtl ghost_planer
v 3.0000 0.0000 0.0000
v 33.0000 0.0000 0.0000
v 33.0000 42.0000 0.0000
v 3.0000 42.0000 0.0000
v 3.0000 0.0000 0.2500
v 33.0000 0.0000 0.2500
v 33.0000 42.0000 0.2500
v 3.0000 42.0000 0.2500
f 473 476 475
f 473 475 474
f 477 478 479
f 477 479 480
f 473 474 478
f 473 478 477
f 475 476 480
f 475 480 479
f 474 475 479
f 474 479 478
f 476 473 477
f 476 477 480

o Planer_Outfeed_Ghost
usemtl ghost_planer
v 3.0000 72.0000 0.0000
v 33.0000 72.0000 0.0000
v 33.0000 120.0000 0.0000
v 3.0000 120.0000 0.0000
v 3.0000 72.0000 0.2500
v 33.0000 72.0000 0.2500
v 33.0000 120.0000 0.2500
v 3.0000 120.0000 0.2500
f 481 484 483
f 481 483 482
f 485 486 487
f 485 487 488
f 481 482 486
f 481 486 485
f 483 484 488
f 483 488 487
f 482 483 487
f 482 487 486
f 484 481 485
f 484 485 488

o Dust_Collector_Body
usemtl tool_metal
v 132.0000 12.0000 36.0000
v 131.4127 15.7082 36.0000
v 129.7082 19.0534 36.0000
v 127.0534 21.7082 36.0000
v 123.7082 23.4127 36.0000
v 120.0000 24.0000 36.0000
v 116.2918 23.4127 36.0000
v 112.9466 21.7082 36.0000
v 110.2918 19.0534 36.0000
v 108.5873 15.7082 36.0000
v 108.0000 12.0000 36.0000
v 108.5873 8.2918 36.0000
v 110.2918 4.9466 36.0000
v 112.9466 2.2918 36.0000
v 116.2918 0.5873 36.0000
v 120.0000 0.0000 36.0000
v 123.7082 0.5873 36.0000
v 127.0534 2.2918 36.0000
v 129.7082 4.9466 36.0000
v 131.4127 8.2918 36.0000
v 132.0000 12.0000 84.0000
v 131.4127 15.7082 84.0000
v 129.7082 19.0534 84.0000
v 127.0534 21.7082 84.0000
v 123.7082 23.4127 84.0000
v 120.0000 24.0000 84.0000
v 116.2918 23.4127 84.0000
v 112.9466 21.7082 84.0000
v 110.2918 19.0534 84.0000
v 108.5873 15.7082 84.0000
v 108.0000 12.0000 84.0000
v 108.5873 8.2918 84.0000
v 110.2918 4.9466 84.0000
v 112.9466 2.2918 84.0000
v 116.2918 0.5873 84.0000
v 120.0000 0.0000 84.0000
v 123.7082 0.5873 84.0000
v 127.0534 2.2918 84.0000
v 129.7082 4.9466 84.0000
v 131.4127 8.2918 84.0000
v 120.0000 12.0000 36.0000
v 120.0000 12.0000 84.0000
f 489 490 510
f 489 510 509
f 490 491 511
f 490 511 510
f 491 492 512
f 491 512 511
f 492 493 513
f 492 513 512
f 493 494 514
f 493 514 513
f 494 495 515
f 494 515 514
f 495 496 516
f 495 516 515
f 496 497 517
f 496 517 516
f 497 498 518
f 497 518 517
f 498 499 519
f 498 519 518
f 499 500 520
f 499 520 519
f 500 501 521
f 500 521 520
f 501 502 522
f 501 522 521
f 502 503 523
f 502 523 522
f 503 504 524
f 503 524 523
f 504 505 525
f 504 525 524
f 505 506 526
f 505 526 525
f 506 507 527
f 506 527 526
f 507 508 528
f 507 528 527
f 508 489 509
f 508 509 528
f 529 490 489
f 530 509 510
f 529 491 490
f 530 510 511
f 529 492 491
f 530 511 512
f 529 493 492
f 530 512 513
f 529 494 493
f 530 513 514
f 529 495 494
f 530 514 515
f 529 496 495
f 530 515 516
f 529 497 496
f 530 516 517
f 529 498 497
f 530 517 518
f 529 499 498
f 530 518 519
f 529 500 499
f 530 519 520
f 529 501 500
f 530 520 521
f 529 502 501
f 530 521 522
f 529 503 502
f 530 522 523
f 529 504 503
f 530 523 524
f 529 505 504
f 530 524 525
f 529 506 505
f 530 525 526
f 529 507 506
f 530 526 527
f 529 508 507
f 530 527 528
f 529 489 508
f 530 528 509

o Dust_Main_BackWall
usemtl duct
v 82.0000 14.0000 0.0000
v 82.0000 13.9021 0.6180
v 82.0000 13.6180 1.1756
v 82.0000 13.1756 1.6180
v 82.0000 12.6180 1.9021
v 82.0000 12.0000 2.0000
v 82.0000 11.3820 1.9021
v 82.0000 10.8244 1.6180
v 82.0000 10.3820 1.1756
v 82.0000 10.0979 0.6180
v 82.0000 10.0000 0.0000
v 82.0000 10.0979 -0.6180
v 82.0000 10.3820 -1.1756
v 82.0000 10.8244 -1.6180
v 82.0000 11.3820 -1.9021
v 82.0000 12.0000 -2.0000
v 82.0000 12.6180 -1.9021
v 82.0000 13.1756 -1.6180
v 82.0000 13.6180 -1.1756
v 82.0000 13.9021 -0.6180
v 322.0000 14.0000 0.0000
v 322.0000 13.9021 0.6180
v 322.0000 13.6180 1.1756
v 322.0000 13.1756 1.6180
v 322.0000 12.6180 1.9021
v 322.0000 12.0000 2.0000
v 322.0000 11.3820 1.9021
v 322.0000 10.8244 1.6180
v 322.0000 10.3820 1.1756
v 322.0000 10.0979 0.6180
v 322.0000 10.0000 0.0000
v 322.0000 10.0979 -0.6180
v 322.0000 10.3820 -1.1756
v 322.0000 10.8244 -1.6180
v 322.0000 11.3820 -1.9021
v 322.0000 12.0000 -2.0000
v 322.0000 12.6180 -1.9021
v 322.0000 13.1756 -1.6180
v 322.0000 13.6180 -1.1756
v 322.0000 13.9021 -0.6180
v 82.0000 12.0000 0.0000
v 322.0000 12.0000 0.0000
f 531 532 552
f 531 552 551
f 532 533 553
f 532 553 552
f 533 534 554
f 533 554 553
f 534 535 555
f 534 555 554
f 535 536 556
f 535 556 555
f 536 537 557
f 536 557 556
f 537 538 558
f 537 558 557
f 538 539 559
f 538 559 558
f 539 540 560
f 539 560 559
f 540 541 561
f 540 561 560
f 541 542 562
f 541 562 561
f 542 543 563
f 542 563 562
f 543 544 564
f 543 564 563
f 544 545 565
f 544 565 564
f 545 546 566
f 545 566 565
f 546 547 567
f 546 567 566
f 547 548 568
f 547 568 567
f 548 549 569
f 548 569 568
f 549 550 570
f 549 570 569
f 550 531 551
f 550 551 570
f 571 532 531
f 572 551 552
f 571 533 532
f 572 552 553
f 571 534 533
f 572 553 554
f 571 535 534
f 572 554 555
f 571 536 535
f 572 555 556
f 571 537 536
f 572 556 557
f 571 538 537
f 572 557 558
f 571 539 538
f 572 558 559
f 571 540 539
f 572 559 560
f 571 541 540
f 572 560 561
f 571 542 541
f 572 561 562
f 571 543 542
f 572 562 563
f 571 544 543
f 572 563 564
f 571 545 544
f 572 564 565
f 571 546 545
f 572 565 566
f 571 547 546
f 572 566 567
f 571 548 547
f 572 567 568
f 571 549 548
f 572 568 569
f 571 550 549
f 572 569 570
f 571 531 550
f 572 570 551

o Dust_Riser_From_Collector
usemtl duct
v 122.0000 12.0000 82.0000
v 121.9021 12.6180 82.0000
v 121.6180 13.1756 82.0000
v 121.1756 13.6180 82.0000
v 120.6180 13.9021 82.0000
v 120.0000 14.0000 82.0000
v 119.3820 13.9021 82.0000
v 118.8244 13.6180 82.0000
v 118.3820 13.1756 82.0000
v 118.0979 12.6180 82.0000
v 118.0000 12.0000 82.0000
v 118.0979 11.3820 82.0000
v 118.3820 10.8244 82.0000
v 118.8244 10.3820 82.0000
v 119.3820 10.0979 82.0000
v 120.0000 10.0000 82.0000
v 120.6180 10.0979 82.0000
v 121.1756 10.3820 82.0000
v 121.6180 10.8244 82.0000
v 121.9021 11.3820 82.0000
v 122.0000 12.0000 96.0000
v 121.9021 12.6180 96.0000
v 121.6180 13.1756 96.0000
v 121.1756 13.6180 96.0000
v 120.6180 13.9021 96.0000
v 120.0000 14.0000 96.0000
v 119.3820 13.9021 96.0000
v 118.8244 13.6180 96.0000
v 118.3820 13.1756 96.0000
v 118.0979 12.6180 96.0000
v 118.0000 12.0000 96.0000
v 118.0979 11.3820 96.0000
v 118.3820 10.8244 96.0000
v 118.8244 10.3820 96.0000
v 119.3820 10.0979 96.0000
v 120.0000 10.0000 96.0000
v 120.6180 10.0979 96.0000
v 121.1756 10.3820 96.0000
v 121.6180 10.8244 96.0000
v 121.9021 11.3820 96.0000
v 120.0000 12.0000 82.0000
v 120.0000 12.0000 96.0000
f 573 574 594
f 573 594 593
f 574 575 595
f 574 595 594
f 575 576 596
f 575 596 595
f 576 577 597
f 576 597 596
f 577 578 598
f 577 598 597
f 578 579 599
f 578 599 598
f 579 580 600
f 579 600 599
f 580 581 601
f 580 601 600
f 581 582 602
f 581 602 601
f 582 583 603
f 582 603 602
f 583 584 604
f 583 604 603
f 584 585 605
f 584 605 604
f 585 586 606
f 585 606 605
f 586 587 607
f 586 607 606
f 587 588 608
f 587 608 607
f 588 589 609
f 588 609 608
f 589 590 610
f 589 610 609
f 590 591 611
f 590 611 610
f 591 592 612
f 591 612 611
f 592 573 593
f 592 593 612
f 613 574 573
f 614 593 594
f 613 575 574
f 614 594 595
f 613 576 575
f 614 595 596
f 613 577 576
f 614 596 597
f 613 578 577
f 614 597 598
f 613 579 578
f 614 598 599
f 613 580 579
f 614 599 600
f 613 581 580
f 614 600 601
f 613 582 581
f 614 601 602
f 613 583 582
f 614 602 603
f 613 584 583
f 614 603 604
f 613 585 584
f 614 604 605
f 613 586 585
f 614 605 606
f 613 587 586
f 614 606 607
f 613 588 587
f 614 607 608
f 613 589 588
f 614 608 609
f 613 590 589
f 614 609 610
f 613 591 590
f 614 610 611
f 613 592 591
f 614 611 612
f 613 573 592
f 614 612 593

o Dust_Branch_ToFloorTools
usemtl duct
v 20.0000 82.0000 12.0000
v 19.9021 82.0000 12.6180
v 19.6180 82.0000 13.1756
v 19.1756 82.0000 13.6180
v 18.6180 82.0000 13.9021
v 18.0000 82.0000 14.0000
v 17.3820 82.0000 13.9021
v 16.8244 82.0000 13.6180
v 16.3820 82.0000 13.1756
v 16.0979 82.0000 12.6180
v 16.0000 82.0000 12.0000
v 16.0979 82.0000 11.3820
v 16.3820 82.0000 10.8244
v 16.8244 82.0000 10.3820
v 17.3820 82.0000 10.0979
v 18.0000 82.0000 10.0000
v 18.6180 82.0000 10.0979
v 19.1756 82.0000 10.3820
v 19.6180 82.0000 10.8244
v 19.9021 82.0000 11.3820
v 20.0000 166.0000 12.0000
v 19.9021 166.0000 12.6180
v 19.6180 166.0000 13.1756
v 19.1756 166.0000 13.6180
v 18.6180 166.0000 13.9021
v 18.0000 166.0000 14.0000
v 17.3820 166.0000 13.9021
v 16.8244 166.0000 13.6180
v 16.3820 166.0000 13.1756
v 16.0979 166.0000 12.6180
v 16.0000 166.0000 12.0000
v 16.0979 166.0000 11.3820
v 16.3820 166.0000 10.8244
v 16.8244 166.0000 10.3820
v 17.3820 166.0000 10.0979
v 18.0000 166.0000 10.0000
v 18.6180 166.0000 10.0979
v 19.1756 166.0000 10.3820
v 19.6180 166.0000 10.8244
v 19.9021 166.0000 11.3820
v 18.0000 82.0000 12.0000
v 18.0000 166.0000 12.0000
f 615 616 636
f 615 636 635
f 616 617 637
f 616 637 636
f 617 618 638
f 617 638 637
f 618 619 639
f 618 639 638
f 619 620 640
f 619 640 639
f 620 621 641
f 620 641 640
f 621 622 642
f 621 642 641
f 622 623 643
f 622 643 642
f 623 624 644
f 623 644 643
f 624 625 645
f 624 645 644
f 625 626 646
f 625 646 645
f 626 627 647
f 626 647 646
f 627 628 648
f 627 648 647
f 628 629 649
f 628 649 648
f 629 630 650
f 629 650 649
f 630 631 651
f 630 651 650
f 631 632 652
f 631 652 651
f 632 633 653
f 632 653 652
f 633 634 654
f 633 654 653
f 634 615 635
f 634 635 654
f 655 616 615
f 656 635 636
f 655 617 616
f 656 636 637
f 655 618 617
f 656 637 638
f 655 619 618
f 656 638 639
f 655 620 619
f 656 639 640
f 655 621 620
f 656 640 641
f 655 622 621
f 656 641 642
f 655 623 622
f 656 642 643
f 655 624 623
f 656 643 644
f 655 625 624
f 656 644 645
f 655 626 625
f 656 645 646
f 655 627 626
f 656 646 647
f 655 628 627
f 656 647 648
f 655 629 628
f 656 648 649
f 655 630 629
f 656 649 650
f 655 631 630
f 656 650 651
f 655 632 631
f 656 651 652
f 655 633 632
f 656 652 653
f 655 634 633
f 656 653 654
f 655 615 634
f 656 654 635

o Drop_Miter_Pipe
usemtl duct
v 71.0000 12.0000 52.0000
v 70.9021 12.6180 52.0000
v 70.6180 13.1756 52.0000
v 70.1756 13.6180 52.0000
v 69.6180 13.9021 52.0000
v 69.0000 14.0000 52.0000
v 68.3820 13.9021 52.0000
v 67.8244 13.6180 52.0000
v 67.3820 13.1756 52.0000
v 67.0979 12.6180 52.0000
v 67.0000 12.0000 52.0000
v 67.0979 11.3820 52.0000
v 67.3820 10.8244 52.0000
v 67.8244 10.3820 52.0000
v 68.3820 10.0979 52.0000
v 69.0000 10.0000 52.0000
v 69.6180 10.0979 52.0000
v 70.1756 10.3820 52.0000
v 70.6180 10.8244 52.0000
v 70.9021 11.3820 52.0000
v 71.0000 12.0000 82.0000
v 70.9021 12.6180 82.0000
v 70.6180 13.1756 82.0000
v 70.1756 13.6180 82.0000
v 69.6180 13.9021 82.0000
v 69.0000 14.0000 82.0000
v 68.3820 13.9021 82.0000
v 67.8244 13.6180 82.0000
v 67.3820 13.1756 82.0000
v 67.0979 12.6180 82.0000
v 67.0000 12.0000 82.0000
v 67.0979 11.3820 82.0000
v 67.3820 10.8244 82.0000
v 67.8244 10.3820 82.0000
v 68.3820 10.0979 82.0000
v 69.0000 10.0000 82.0000
v 69.6180 10.0979 82.0000
v 70.1756 10.3820 82.0000
v 70.6180 10.8244 82.0000
v 70.9021 11.3820 82.0000
v 69.0000 12.0000 52.0000
v 69.0000 12.0000 82.0000
f 657 658 678
f 657 678 677
f 658 659 679
f 658 679 678
f 659 660 680
f 659 680 679
f 660 661 681
f 660 681 680
f 661 662 682
f 661 682 681
f 662 663 683
f 662 683 682
f 663 664 684
f 663 684 683
f 664 665 685
f 664 685 684
f 665 666 686
f 665 686 685
f 666 667 687
f 666 687 686
f 667 668 688
f 667 688 687
f 668 669 689
f 668 689 688
f 669 670 690
f 669 690 689
f 670 671 691
f 670 691 690
f 671 672 692
f 671 692 691
f 672 673 693
f 672 693 692
f 673 674 694
f 673 694 693
f 674 675 695
f 674 695 694
f 675 676 696
f 675 696 695
f 676 657 677
f 676 677 696
f 697 658 657
f 698 677 678
f 697 659 658
f 698 678 679
f 697 660 659
f 698 679 680
f 697 661 660
f 698 680 681
f 697 662 661
f 698 681 682
f 697 663 662
f 698 682 683
f 697 664 663
f 698 683 684
f 697 665 664
f 698 684 685
f 697 666 665
f 698 685 686
f 697 667 666
f 698 686 687
f 697 668 667
f 698 687 688
f 697 669 668
f 698 688 689
f 697 670 669
f 698 689 690
f 697 671 670
f 698 690 691
f 697 672 671
f 698 691 692
f 697 673 672
f 698 692 693
f 697 674 673
f 698 693 694
f 697 675 674
f 698 694 695
f 697 676 675
f 698 695 696
f 697 657 676
f 698 696 677

o Drop_Router_Pipe
usemtl duct
v 122.0000 12.0000 52.0000
v 121.9021 12.6180 52.0000
v 121.6180 13.1756 52.0000
v 121.1756 13.6180 52.0000
v 120.6180 13.9021 52.0000
v 120.0000 14.0000 52.0000
v 119.3820 13.9021 52.0000
v 118.8244 13.6180 52.0000
v 118.3820 13.1756 52.0000
v 118.0979 12.6180 52.0000
v 118.0000 12.0000 52.0000
v 118.0979 11.3820 52.0000
v 118.3820 10.8244 52.0000
v 118.8244 10.3820 52.0000
v 119.3820 10.0979 52.0000
v 120.0000 10.0000 52.0000
v 120.6180 10.0979 52.0000
v 121.1756 10.3820 52.0000
v 121.6180 10.8244 52.0000
v 121.9021 11.3820 52.0000
v 122.0000 12.0000 82.0000
v 121.9021 12.6180 82.0000
v 121.6180 13.1756 82.0000
v 121.1756 13.6180 82.0000
v 120.6180 13.9021 82.0000
v 120.0000 14.0000 82.0000
v 119.3820 13.9021 82.0000
v 118.8244 13.6180 82.0000
v 118.3820 13.1756 82.0000
v 118.0979 12.6180 82.0000
v 118.0000 12.0000 82.0000
v 118.0979 11.3820 82.0000
v 118.3820 10.8244 82.0000
v 118.8244 10.3820 82.0000
v 119.3820 10.0979 82.0000
v 120.0000 10.0000 82.0000
v 120.6180 10.0979 82.0000
v 121.1756 10.3820 82.0000
v 121.6180 10.8244 82.0000
v 121.9021 11.3820 82.0000
v 120.0000 12.0000 52.0000
v 120.0000 12.0000 82.0000
f 699 700 720
f 699 720 719
f 700 701 721
f 700 721 720
f 701 702 722
f 701 722 721
f 702 703 723
f 702 723 722
f 703 704 724
f 703 724 723
f 704 705 725
f 704 725 724
f 705 706 726
f 705 726 725
f 706 707 727
f 706 727 726
f 707 708 728
f 707 728 727
f 708 709 729
f 708 729 728
f 709 710 730
f 709 730 729
f 710 711 731
f 710 731 730
f 711 712 732
f 711 732 731
f 712 713 733
f 712 733 732
f 713 714 734
f 713 734 733
f 714 715 735
f 714 735 734
f 715 716 736
f 715 736 735
f 716 717 737
f 716 737 736
f 717 718 738
f 717 738 737
f 718 699 719
f 718 719 738
f 739 700 699
f 740 719 720
f 739 701 700
f 740 720 721
f 739 702 701
f 740 721 722
f 739 703 702
f 740 722 723
f 739 704 703
f 740 723 724
f 739 705 704
f 740 724 725
f 739 706 705
f 740 725 726
f 739 707 706
f 740 726 727
f 739 708 707
f 740 727 728
f 739 709 708
f 740 728 729
f 739 710 709
f 740 729 730
f 739 711 710
f 740 730 731
f 739 712 711
f 740 731 732
f 739 713 712
f 740 732 733
f 739 714 713
f 740 733 734
f 739 715 714
f 740 734 735
f 739 716 715
f 740 735 736
f 739 717 716
f 740 736 737
f 739 718 717
f 740 737 738
f 739 699 718
f 740 738 719

o Drop_Planer_Pipe
usemtl duct
v 20.0000 57.0000 52.0000
v 19.9021 57.6180 52.0000
v 19.6180 58.1756 52.0000
v 19.1756 58.6180 52.0000
v 18.6180 58.9021 52.0000
v 18.0000 59.0000 52.0000
v 17.3820 58.9021 52.0000
v 16.8244 58.6180 52.0000
v 16.3820 58.1756 52.0000
v 16.0979 57.6180 52.0000
v 16.0000 57.0000 52.0000
v 16.0979 56.3820 52.0000
v 16.3820 55.8244 52.0000
v 16.8244 55.3820 52.0000
v 17.3820 55.0979 52.0000
v 18.0000 55.0000 52.0000
v 18.6180 55.0979 52.0000
v 19.1756 55.3820 52.0000
v 19.6180 55.8244 52.0000
v 19.9021 56.3820 52.0000
v 20.0000 57.0000 82.0000
v 19.9021 57.6180 82.0000
v 19.6180 58.1756 82.0000
v 19.1756 58.6180 82.0000
v 18.6180 58.9021 82.0000
v 18.0000 59.0000 82.0000
v 17.3820 58.9021 82.0000
v 16.8244 58.6180 82.0000
v 16.3820 58.1756 82.0000
v 16.0979 57.6180 82.0000
v 16.0000 57.0000 82.0000
v 16.0979 56.3820 82.0000
v 16.3820 55.8244 82.0000
v 16.8244 55.3820 82.0000
v 17.3820 55.0979 82.0000
v 18.0000 55.0000 82.0000
v 18.6180 55.0979 82.0000
v 19.1756 55.3820 82.0000
v 19.6180 55.8244 82.0000
v 19.9021 56.3820 82.0000
v 18.0000 57.0000 52.0000
v 18.0000 57.0000 82.0000
f 741 742 762
f 741 762 761
f 742 743 763
f 742 763 762
f 743 744 764
f 743 764 763
f 744 745 765
f 744 765 764
f 745 746 766
f 745 766 765
f 746 747 767
f 746 767 766
f 747 748 768
f 747 768 767
f 748 749 769
f 748 769 768
f 749 750 770
f 749 770 769
f 750 751 771
f 750 771 770
f 751 752 772
f 751 772 771
f 752 753 773
f 752 773 772
f 753 754 774
f 753 774 773
f 754 755 775
f 754 775 774
f 755 756 776
f 755 776 775
f 756 757 777
f 756 777 776
f 757 758 778
f 757 778 777
f 758 759 779
f 758 779 778
f 759 760 780
f 759 780 779
f 760 741 761
f 760 761 780
f 781 742 741
f 782 761 762
f 781 743 742
f 782 762 763
f 781 744 743
f 782 763 764
f 781 745 744
f 782 764 765
f 781 746 745
f 782 765 766
f 781 747 746
f 782 766 767
f 781 748 747
f 782 767 768
f 781 749 748
f 782 768 769
f 781 750 749
f 782 769 770
f 781 751 750
f 782 770 771
f 781 752 751
f 782 771 772
f 781 753 752
f 782 772 773
f 781 754 753
f 782 773 774
f 781 755 754
f 782 774 775
f 781 756 755
f 782 775 776
f 781 757 756
f 782 776 777
f 781 758 757
f 782 777 778
f 781 759 758
f 782 778 779
f 781 760 759
f 782 779 780
f 781 741 760
f 782 780 761

o Drop_TableSaw_Pipe
usemtl duct
v 20.0000 78.0000 32.0000
v 19.9021 78.6180 32.0000
v 19.6180 79.1756 32.0000
v 19.1756 79.6180 32.0000
v 18.6180 79.9021 32.0000
v 18.0000 80.0000 32.0000
v 17.3820 79.9021 32.0000
v 16.8244 79.6180 32.0000
v 16.3820 79.1756 32.0000
v 16.0979 78.6180 32.0000
v 16.0000 78.0000 32.0000
v 16.0979 77.3820 32.0000
v 16.3820 76.8244 32.0000
v 16.8244 76.3820 32.0000
v 17.3820 76.0979 32.0000
v 18.0000 76.0000 32.0000
v 18.6180 76.0979 32.0000
v 19.1756 76.3820 32.0000
v 19.6180 76.8244 32.0000
v 19.9021 77.3820 32.0000
v 20.0000 78.0000 82.0000
v 19.9021 78.6180 82.0000
v 19.6180 79.1756 82.0000
v 19.1756 79.6180 82.0000
v 18.6180 79.9021 82.0000
v 18.0000 80.0000 82.0000
v 17.3820 79.9021 82.0000
v 16.8244 79.6180 82.0000
v 16.3820 79.1756 82.0000
v 16.0979 78.6180 82.0000
v 16.0000 78.0000 82.0000
v 16.0979 77.3820 82.0000
v 16.3820 76.8244 82.0000
v 16.8244 76.3820 82.0000
v 17.3820 76.0979 82.0000
v 18.0000 76.0000 82.0000
v 18.6180 76.0979 82.0000
v 19.1756 76.3820 82.0000
v 19.6180 76.8244 82.0000
v 19.9021 77.3820 82.0000
v 18.0000 78.0000 32.0000
v 18.0000 78.0000 82.0000
f 783 784 804
f 783 804 803
f 784 785 805
f 784 805 804
f 785 786 806
f 785 806 805
f 786 787 807
f 786 807 806
f 787 788 808
f 787 808 807
f 788 789 809
f 788 809 808
f 789 790 810
f 789 810 809
f 790 791 811
f 790 811 810
f 791 792 812
f 791 812 811
f 792 793 813
f 792 813 812
f 793 794 814
f 793 814 813
f 794 795 815
f 794 815 814
f 795 796 816
f 795 816 815
f 796 797 817
f 796 817 816
f 797 798 818
f 797 818 817
f 798 799 819
f 798 819 818
f 799 800 820
f 799 820 819
f 800 801 821
f 800 821 820
f 801 802 822
f 801 822 821
f 802 783 803
f 802 803 822
f 823 784 783
f 824 803 804
f 823 785 784
f 824 804 805
f 823 786 785
f 824 805 806
f 823 787 786
f 824 806 807
f 823 788 787
f 824 807 808
f 823 789 788
f 824 808 809
f 823 790 789
f 824 809 810
f 823 791 790
f 824 810 811
f 823 792 791
f 824 811 812
f 823 793 792
f 824 812 813
f 823 794 793
f 824 813 814
f 823 795 794
f 824 814 815
f 823 796 795
f 824 815 816
f 823 797 796
f 824 816 817
f 823 798 797
f 824 817 818
f 823 799 798
f 824 818 819
f 823 800 799
f 824 819 820
f 823 801 800
f 824 820 821
f 823 802 801
f 824 821 822
f 823 783 802
f 824 822 803
